<svg width="24" height="24" fill="none" xmlns="http://www.w3.org/2000/svg"><path d="m12.372 2.15 9 3.6c.35.14.63.56.63.93V10c0 .55-.45 1-1 1h-18c-.55 0-1-.45-1-1V6.68c0-.37.28-.79.63-.93l9-3.6c.2-.08.54-.08.74 0ZM22.002 22h-20v-3c0-.55.45-1 1-1h18c.55 0 1 .45 1 1v3ZM3.998 18v-7m4.004 7v-7M12 18v-7m3.998 7v-7m4.004 7v-7M.998 22h22" stroke="#DC143C" stroke-width="1.5" stroke-miterlimit="10" stroke-linecap="round" stroke-linejoin="round"/><path d="M12 8.5a1.5 1.5 0 1 0 0-3 1.5 1.5 0 0 0 0 3Z" stroke="#DC143C" stroke-width="1.5" stroke-miterlimit="10" stroke-linecap="round" stroke-linejoin="round"/></svg>