<svg width="48" height="48" fill="none" xmlns="http://www.w3.org/2000/svg"><path d="M43.94 36.66c0 .72-.16 1.46-.5 2.18-.34.72-.78 1.4-1.36 2.04-.98 1.08-2.06 1.86-3.28 2.36-1.2.5-2.5.76-3.9.76-2.04 0-4.22-.48-6.52-1.46s-4.6-2.3-6.88-3.96a57.5 57.5 0 0 1-6.56-5.6 56.828 56.828 0 0 1-5.58-6.54c-1.64-2.28-2.96-4.56-3.92-6.82C4.48 17.34 4 15.16 4 13.08c0-1.36.24-2.66.72-3.86C5.2 8 5.96 6.88 7.02 5.88 8.3 4.62 9.7 4 11.18 4c.56 0 1.12.12 1.62.36.52.24.98.6 1.34 1.12l4.64 6.54c.36.5.62.96.8 1.4.18.42.28.84.28 1.22 0 .48-.14.96-.42 1.42-.26.46-.64.94-1.12 1.42l-1.52 1.58c-.22.22-.32.48-.32.8 0 .16.02.3.06.46.06.16.12.28.16.4.36.66.98 1.52 1.86 2.56.9 1.04 1.86 2.1 2.9 3.16 1.08 1.06 2.12 2.04 3.18 2.94 1.04.88 1.9 1.48 2.58 1.84.1.04.22.1.36.16.16.06.32.08.5.08.34 0 .6-.12.82-.34l1.52-1.5c.5-.5.98-.88 1.44-1.12.46-.28.92-.42 1.42-.42.38 0 .78.08 1.22.26.44.18.9.44 1.4.78l6.62 4.7c.52.36.88.78 1.1 1.28.2.5.32 1 .32 1.56Z" stroke="#DC143C" stroke-width="1.5" stroke-miterlimit="10"/><path d="M37 18c0-1.2-.94-3.04-2.34-4.54C33.38 12.08 31.68 11 30 11m14 7c0-7.74-6.26-14-14-14" stroke="#DC143C" stroke-width="1.5" stroke-linecap="round" stroke-linejoin="round"/></svg>