<svg width="24" height="24" fill="none" xmlns="http://www.w3.org/2000/svg"><path d="m14.97 1.29.353-.353-.354.353Zm0 1.42.352.354.001-.001-.354-.353Zm-1.417-1.42.354.353-.354-.353Zm-3.989 4-.354-.353-.365.366.378.353.341-.366Zm.938 1.88-.498.053.11 1.04.741-.74-.353-.353Zm-7 11.17.498.034.002-.017v-.017h-.5Zm0-4.1-.5-.007v.007h.5Zm0 4.32-.352.356.94.927L4 18.526l-.498.034Zm-.629-.62-.367.34.008.008.008.008.351-.356Zm-.867-2.43.499.03v-.03h-.5Zm.841-6.906-.451-.215.451.215Zm.884-2.434.492.087v-.002l-.492-.085Zm.449-2.59-.492-.092-.001.007.493.085Zm.578-.4-.089.492.01.002.009.001.07-.495Zm1.236 1.1.489-.109-.003-.01-.002-.01-.484.129Zm0 .41-.488-.109-.002.012-.002.013.492.084Zm-.997 5.85.364.343.104-.11.025-.149-.493-.084Zm15.297 2.55.354.353.85-.853h-1.204v.5Zm-1.994 2 .35.357.004-.004-.354-.353Zm1.944-2-.354-.353-.85.853h1.204v-.5Zm1.416 1.42.354.353-.354-.353Zm-5.175 5.18-.354-.354.354.354Zm-1.107.84.244.436-.244-.436Zm-3.081 1.72.241.438.002-.002-.243-.436ZM9.395 23v.5-.5Zm-.05 0v.5-.5Zm-2.114-.88.354-.353-.001-.001-.353.354Zm-1.356-1.35-.366.34.006.008.007.006.353-.354Zm-.878-2.43.5.028v-.028h-.5Zm.852-6.944.451.215-.451-.215ZM6.722 9l.493.088v-.003L6.722 9Zm.45-2.6-.492-.092-.002.007.493.085ZM7.75 6l-.09.492h.005L7.75 6Zm1.236 1.45h.5v-.006l-.5.006Zm0 4.21h-.5v1.205l.853-.851-.353-.354Zm7.559-7.54.353.354v-.001l-.353-.353Zm1.675.45-.483.13.483-.13Zm-.26.97.354.353-.353-.353Zm-4.646 4.65-.354-.353.354.353Zm0 .71.354-.353-.354.353Zm.708 0-.354-.353.354.353Zm5.295-5.31.354.353.001-.001-.355-.352Zm1.416 0-.356.352.356-.352Zm0 1.41.353.354.002-.002L20.733 7Zm-5.295 5.29.352.354h.001l-.353-.354Zm0 .71-.353.354.002.003.35-.357Zm.698 0 .35.357.003-.003-.353-.354Zm4.158-4.15.353.354.003-.002-.356-.352Zm1.416 0-.355.352.355-.352Zm0 1.41.354.353.001-.001-.355-.352Zm-4.108 4.12.352.354.002-.001-.354-.353Zm0 .71-.353.354.002.002.35-.356ZM14.615 1.643a.506.506 0 0 1 0 .714l.708.706a1.506 1.506 0 0 0 0-2.126l-.708.706Zm-.708 0a.5.5 0 0 1 .708 0l.708-.706a1.5 1.5 0 0 0-2.124 0l.708.706Zm-3.989 4 3.99-4-.709-.706-3.989 4 .708.706ZM11 7.117a3.503 3.503 0 0 0-1.094-2.193l-.682.732c.44.41.718.967.781 1.567L11 7.117Zm3.617-4.76-4.467 4.46.706.707 4.467-4.46-.706-.708ZM4.002 18.34v-4.1h-1v4.1h1ZM4 18.526a1.125 1.125 0 0 1 0-.152l-.997-.068a2.125 2.125 0 0 0 0 .288L4 18.526Zm-1.478-.23.628.62.703-.712-.628-.62-.703.712ZM1.507 15.48a3.796 3.796 0 0 0 .999 2.8l.735-.68a2.796 2.796 0 0 1-.736-2.06l-.998-.06Zm-.001-4.07v4.1h1v-4.1h-1Zm.89-3.021c-.424.888-.89 1.849-.89 3.02h1c0-.911.355-1.674.792-2.59l-.902-.43Zm.842-2.306c-.148.845-.485 1.557-.842 2.306l.902.43c.352-.737.75-1.565.925-2.562l-.985-.174Zm.449-2.588-.449 2.59.986.17.448-2.59-.985-.17Zm1.16-.807a.999.999 0 0 0-1.159.8l.983.184c0-.001 0-.001 0 0h-.002l.178-.984Zm1.63 1.464a1.997 1.997 0 0 0-1.649-1.467l-.14.99c.395.056.72.344.823.733l.967-.256Zm.006.647a1.446 1.446 0 0 0 0-.628l-.977.218a.442.442 0 0 1 0 .192l.977.218Zm-.993 5.825.997-5.85-.985-.168-.998 5.85.986.168Zm-1.489 3.622a4.998 4.998 0 0 1 1.36-3.363l-.728-.686a5.998 5.998 0 0 0-1.631 4.037l1 .012Zm15.939-1.51-1.994 2 .708.707 1.994-2-.708-.706Zm.304.854h.05v-1h-.05v1Zm1.77-.853a1.5 1.5 0 0 0-2.124 0l.708.706a.5.5 0 0 1 .708 0l.708-.706Zm0 2.126a1.506 1.506 0 0 0 0-2.126l-.708.706a.506.506 0 0 1 0 .714l.708.706Zm-5.175 5.18 5.175-5.18-.707-.707-5.176 5.18.707.707Zm-1.216.923a5.52 5.52 0 0 0 1.216-.923l-.708-.706a4.556 4.556 0 0 1-.998.757l.49.872Zm-3.083 1.72 3.082-1.72-.488-.873-3.081 1.72.487.873Zm-3.144.814a6.53 6.53 0 0 0 3.142-.812l-.483-.876c-.815.45-1.73.686-2.661.688l.002 1Zm-.051 0h.05v-1h-.05v1Zm-2.468-1.027A3.487 3.487 0 0 0 9.345 23.5v-1c-.66 0-1.293-.264-1.76-.733l-.708.706Zm-1.355-1.349 1.356 1.35.706-.708-1.356-1.35-.706.708Zm-1.024-2.812a3.795 3.795 0 0 0 1.01 2.799l.733-.682a2.795 2.795 0 0 1-.744-2.061l-.999-.056Zm0-4.072v4.1h1v-4.1h-1Zm.899-3.058c-.427.9-.9 1.878-.9 3.058h1c0-.92.363-1.7.803-2.629l-.903-.429Zm.833-2.27c-.147.819-.479 1.524-.833 2.27l.903.429c.348-.733.74-1.553.915-2.523l-.985-.176Zm.448-2.597-.448 2.6.985.17.449-2.6-.986-.17Zm1.16-.807a.999.999 0 0 0-1.158.8l.983.184c0-.001 0-.001 0 0H7.66l.177-.984Zm1.648 1.936a1.989 1.989 0 0 0-1.652-1.937l-.169.986c.469.08.815.484.821.963l1-.012Zm0 4.216V7.45h-1v4.21h1Zm6.706-7.894-7.56 7.54.707.708 7.559-7.54-.706-.708Zm1.45-.389a1.5 1.5 0 0 0-1.451.39l.708.706a.5.5 0 0 1 .483-.13l.26-.966Zm1.06 1.064a1.503 1.503 0 0 0-1.06-1.064l-.26.966a.503.503 0 0 1 .355.356l.966-.258Zm-.387 1.452c.379-.38.526-.934.388-1.452l-.966.258a.506.506 0 0 1-.13.488l.708.706Zm-4.648 4.65 4.647-4.65-.707-.706-4.647 4.65.707.706Zm0 .004v-.004l-.707-.706a1.003 1.003 0 0 0 0 1.416l.708-.706Zm0 0-.707.706a1 1 0 0 0 1.416 0l-.708-.706Zm5.296-5.31-5.295 5.31.708.706 5.295-5.31-.708-.706Zm1.062-.443c-.4 0-.783.16-1.064.444l.711.704a.496.496 0 0 1 .353-.148v-1Zm1.063.444a1.496 1.496 0 0 0-1.063-.444v1c.132 0 .259.053.352.148l.711-.704Zm0 2.114c.58-.585.58-1.53 0-2.114l-.71.704a.502.502 0 0 1 0 .706l.71.704Zm-5.297 5.292 5.295-5.29-.707-.708-5.295 5.29.707.708Zm0 0-.706-.709a1 1 0 0 0-.295.71h1Zm0 .001h-1a1 1 0 0 0 .294.71l.705-.71Zm-.006-.002h.003l-.7.713a.998.998 0 0 0 1.398 0l-.7-.713Zm4.156-4.147-4.158 4.15.706.708 4.158-4.15-.706-.708Zm1.061-.442c-.4 0-.782.16-1.063.444l.71.704a.496.496 0 0 1 .353-.148v-1Zm1.064.444a1.496 1.496 0 0 0-1.064-.444v1c.132 0 .26.053.353.148l.71-.704Zm0 2.114a1.504 1.504 0 0 0 0-2.114l-.711.704a.502.502 0 0 1 0 .706l.71.704Zm-4.11 4.121 4.108-4.12-.708-.706-4.108 4.12.708.706Zm-.002.002-.705-.71a1.001 1.001 0 0 0-.295.71h1Zm0 0h-1a1 1 0 0 0 .295.71l.705-.71Zm-.005-.002h.003l-.7.713a.998.998 0 0 0 1.398 0l-.7-.713Z" fill="#DC143C"/></svg>