<svg width="20" height="20" fill="none" xmlns="http://www.w3.org/2000/svg"><path d="m10.31 1.792 7.5 3a.902.902 0 0 1 .525.775v2.766a.836.836 0 0 1-.834.834h-15a.836.836 0 0 1-.833-.834V5.567a.9.9 0 0 1 .525-.775l7.5-3a.976.976 0 0 1 .617 0Zm8.025 16.541H1.668v-2.5c0-.458.375-.833.833-.833h15c.459 0 .834.375.834.833v2.5ZM3.332 15V9.167M6.668 15V9.167M10 15V9.167M13.332 15V9.167M16.668 15V9.167M.832 18.333h18.333" stroke="#292D32" stroke-width="1.5" stroke-miterlimit="10" stroke-linecap="round" stroke-linejoin="round"/><path d="M10 7.083a1.25 1.25 0 1 0 0-2.5 1.25 1.25 0 0 0 0 2.5Z" stroke="#292D32" stroke-width="1.5" stroke-miterlimit="10" stroke-linecap="round" stroke-linejoin="round"/></svg>