<svg width="24" height="24" fill="none" xmlns="http://www.w3.org/2000/svg"><path fill-rule="evenodd" clip-rule="evenodd" d="m6 8.96.246 2.952.743 7.92.102.41a1 1 0 0 0 .97.758H11a1 1 0 1 1 0 2H8.062a3 3 0 0 1-2.91-2.272l-.01-.04-3.59-1.794A1 1 0 0 1 1 18v-5a1 1 0 0 1 .706-.956l2.48-.763-.183-2.198A1.001 1.001 0 0 1 4 9a8 8 0 1 1 16 0c0 .028-.001.055-.003.083l-.184 2.198 2.481.763A1 1 0 0 1 23 13v5a1 1 0 0 1-.553.894l-4 2a1 1 0 0 1-1.443-.987l.75-7.995L18 8.96a6 6 0 0 0-12 0Zm13.63 4.357-.466 4.983L21 17.382v-3.643l-1.37-.422Zm-15.26 0L3 13.74v3.643l1.836.918-.467-4.983Z" fill="#000"/></svg>