<svg width="24" height="24" fill="none" xmlns="http://www.w3.org/2000/svg"><g clip-path="url(#a)" fill="#000"><path d="M10 9.5c0-.665.717-1.5 2-1.5.722 0 1.315.29 1.657.67a1 1 0 0 0 1.486-1.34C14.598 6.726 13.845 6.3 13 6.11V5a1 1 0 1 0-2 0v1.113c-1.632.374-3 1.64-3 3.387 0 2.096 1.97 3.5 4 3.5 1.283 0 2 .835 2 1.5s-.717 1.5-2 1.5c-.722 0-1.315-.29-1.658-.67a1 1 0 1 0-1.485 1.34c.545.604 1.298 1.03 2.143 1.22V19a1 1 0 1 0 2 0v-1.113c1.632-.374 3-1.64 3-3.387 0-2.096-1.97-3.5-4-3.5-1.283 0-2-.835-2-1.5Z"/><path fill-rule="evenodd" clip-rule="evenodd" d="M24 12c0 6.627-5.373 12-12 12S0 18.627 0 12 5.373 0 12 0s12 5.373 12 12Zm-2 0c0 5.523-4.477 10-10 10S2 17.523 2 12 6.477 2 12 2s10 4.477 10 10Z"/></g><defs><clipPath id="a"><path fill="#fff" d="M0 0h24v24H0z"/></clipPath></defs></svg>