<svg width="48" height="48" fill="none" xmlns="http://www.w3.org/2000/svg"><path d="M12 12.5v4M44 24v-6C44 8 40 4 30 4H18C8 4 4 8 4 18v12c0 10 4 14 14 14h6m-4-31.5v4M12 32v4m8-4v4m8-21.5h8M4 24h40" stroke="#DC143C" stroke-width="1.5" stroke-linecap="round" stroke-linejoin="round"/><path d="M43.12 40.66a6.48 6.48 0 0 1-5.62 3.24c-3.58 0-5.78-3.6-5.78-3.6m.14-6.12a6.465 6.465 0 0 1 5.64-3.26c4.34 0 6.5 3.6 6.5 3.6m0-4.02v4h-4m-4.28 5.78h-4V44" stroke="#DC143C" stroke-width="1.5" stroke-linecap="round" stroke-linejoin="round"/></svg>