<svg width="20" height="20" fill="none" xmlns="http://www.w3.org/2000/svg"><path d="M6.668 10.167h5.833M6.668 13.5h3.65M8.335 5h3.333c1.667 0 1.667-.833 1.667-1.667 0-1.666-.834-1.666-1.667-1.666H8.335c-.834 0-1.667 0-1.667 1.666C6.668 5 7.501 5 8.335 5Z" stroke="#292D32" stroke-width="1.5" stroke-miterlimit="10" stroke-linecap="round" stroke-linejoin="round"/><path d="M13.333 3.35c2.775.15 4.167 1.175 4.167 4.983v5c0 3.334-.833 5-5 5h-5c-4.167 0-5-1.666-5-5v-5c0-3.8 1.392-4.833 4.167-4.983" stroke="#292D32" stroke-width="1.5" stroke-miterlimit="10" stroke-linecap="round" stroke-linejoin="round"/></svg>