<svg width="20" height="20" fill="none" xmlns="http://www.w3.org/2000/svg"><path d="M18.31 15.275c0 .3-.067.608-.209.908a3.44 3.44 0 0 1-.566.85c-.409.45-.859.775-1.367.984-.5.208-1.042.316-1.625.316-.85 0-1.758-.2-2.717-.608a14.645 14.645 0 0 1-2.866-1.65 23.952 23.952 0 0 1-2.734-2.333 23.673 23.673 0 0 1-2.325-2.725c-.683-.95-1.233-1.9-1.633-2.842-.4-.95-.6-1.858-.6-2.725 0-.567.1-1.108.3-1.608.2-.509.517-.975.958-1.392.534-.525 1.117-.783 1.734-.783.233 0 .466.05.675.15.216.1.408.25.558.466l1.933 2.725c.15.209.259.4.334.584.075.175.116.35.116.508 0 .2-.058.4-.175.592a2.834 2.834 0 0 1-.466.591L7 7.942a.446.446 0 0 0-.133.333c0 .067.008.125.025.192.025.066.05.116.067.166.15.275.408.634.775 1.067.375.433.775.875 1.208 1.317.45.441.883.85 1.325 1.225.433.366.792.616 1.075.766.042.017.092.042.15.067a.575.575 0 0 0 .208.033c.142 0 .25-.05.342-.141l.633-.625c.209-.209.409-.367.6-.467a1.11 1.11 0 0 1 .592-.175c.158 0 .325.033.508.108.184.075.375.184.584.325l2.758 1.959c.217.15.367.325.458.533.084.208.134.417.134.65Z" stroke="#292D32" stroke-width="1.5" stroke-miterlimit="10"/></svg>