<svg width="32" height="32" fill="none" xmlns="http://www.w3.org/2000/svg"><path d="m6.858 17.036 4.015-4.92c.41-.528.616-.793.723-1.089.096-.261.135-.54.116-.819-.021-.314-.146-.624-.394-1.246l-.948-2.369c-.367-.919-.551-1.378-.868-1.68a2 2 0 0 0-1.009-.515c-.43-.08-.91.04-1.87.28L4 5.332C4 18.667 13.333 28 26.667 28l.655-2.623c.24-.96.36-1.441.28-1.87a2 2 0 0 0-.516-1.01c-.301-.316-.76-.5-1.68-.868l-2.114-.845c-.708-.284-1.063-.425-1.416-.436a2 2 0 0 0-.905.186c-.32.149-.59.418-1.13.958l-4.104 4.056M20 6.667V12m0 0h5.333M20 12l8-8" stroke="#DC143C" stroke-width="1.5" stroke-linecap="round" stroke-linejoin="round"/></svg>