<svg width="48" height="48" fill="none" xmlns="http://www.w3.org/2000/svg"><path d="m6.706 30.1-.73.17.73-.17Zm0-12.2-.73-.17.73.17Zm34.588 0-.73.172.73-.171Zm0 12.2-.73-.172.73.171ZM30.1 41.293l-.171-.73.171.73Zm-12.198 0 .171-.73-.171.73Zm0-34.588.171.73-.171-.73Zm12.198 0-.171.73.171-.73ZM16.216 25.003a.75.75 0 1 0 1.004 1.115l-1.004-1.115Zm3.915-2.514.502.557-.502-.557Zm3.123.392.624-.416-.624.416Zm1.492 2.238-.624.416.624-.416Zm3.123.392-.502-.557.502.557Zm3.915-2.514a.75.75 0 1 0-1.004-1.115l1.004 1.115Zm-5.635 3.578-.093.744.093-.744Zm-4.298-5.15-.094.744.094-.744ZM7.436 29.928a25.957 25.957 0 0 1 0-11.856l-1.46-.342a27.457 27.457 0 0 0 0 12.54l1.46-.342Zm33.128-11.856a25.96 25.96 0 0 1 0 11.856l1.46.342a27.455 27.455 0 0 0 0-12.54l-1.46.342ZM29.928 40.564a25.96 25.96 0 0 1-11.856 0l-.342 1.46c4.124.968 8.416.968 12.54 0l-.342-1.46ZM18.072 7.436a25.958 25.958 0 0 1 11.856 0l.342-1.46a27.457 27.457 0 0 0-12.54 0l.342 1.46Zm0 33.128A14.273 14.273 0 0 1 7.436 29.928l-1.46.342A15.773 15.773 0 0 0 17.73 42.024l.342-1.46Zm12.198 1.46A15.773 15.773 0 0 0 42.024 30.27l-1.46-.342a14.273 14.273 0 0 1-10.636 10.636l.342 1.46Zm-.342-34.588a14.273 14.273 0 0 1 10.636 10.636l1.46-.342A15.773 15.773 0 0 0 30.27 5.976l-.342 1.46ZM17.73 5.976A15.773 15.773 0 0 0 5.976 17.73l1.46.342A14.273 14.273 0 0 1 18.072 7.436l-.342-1.46Zm-.51 20.142 3.413-3.072-1.004-1.115-3.413 3.072 1.004 1.115Zm5.41-2.82 1.492 2.237 1.248-.832-1.492-2.238-1.248.832Zm5.74 2.77 3.414-3.07-1.004-1.116-3.413 3.072 1.004 1.115Zm-4.248-.533c.298.447.564.85.822 1.138.271.305.62.584 1.112.646l.187-1.488s-.004.001-.024-.011a.812.812 0 0 1-.156-.145c-.17-.192-.37-.488-.693-.972l-1.248.832Zm3.245-.581c-.433.39-.699.627-.912.77a.809.809 0 0 1-.187.102c-.022.007-.025.005-.025.005l-.187 1.488c.491.062.898-.123 1.237-.35.321-.217.679-.541 1.078-.9l-1.004-1.115Zm-6.734-1.908c.433-.39.699-.627.912-.77a.813.813 0 0 1 .187-.102c.022-.007.025-.005.025-.005l.187-1.488c-.491-.062-.898.123-1.237.35-.321.217-.679.541-1.078.9l1.004 1.115Zm3.245-.581c-.298-.447-.564-.85-.822-1.138-.271-.305-.62-.584-1.112-.646l-.187 1.488s.004-.001.024.011a.812.812 0 0 1 .156.145c.17.192.37.488.693.972l1.248-.832Z" fill="#DC143C"/></svg>