<svg width="48" height="48" fill="none" xmlns="http://www.w3.org/2000/svg"><path d="M40.616 34.55c0 .6-.133 1.217-.416 1.817-.284.6-.65 1.166-1.134 1.7-.816.9-1.716 1.55-2.733 1.966a8.37 8.37 0 0 1-3.25.634c-1.7 0-3.517-.4-5.433-1.217-1.917-.817-3.834-1.917-5.734-3.3a47.925 47.925 0 0 1-5.466-4.667 47.355 47.355 0 0 1-4.65-5.45c-1.367-1.9-2.467-3.8-3.267-5.683-.8-1.9-1.2-3.717-1.2-5.45 0-1.133.2-2.217.6-3.217.4-1.016 1.033-1.95 1.917-2.783 1.066-1.05 2.233-1.567 3.466-1.567.467 0 .934.1 1.35.3.434.2.817.5 1.117.934l3.867 5.45c.3.416.516.8.666 1.166.15.35.234.7.234 1.017 0 .4-.117.8-.35 1.183-.217.384-.534.784-.934 1.184L18 19.883a.892.892 0 0 0-.267.667c0 .133.017.25.05.383.05.134.1.234.133.334.3.55.817 1.266 1.55 2.133.75.867 1.55 1.75 2.417 2.633.9.884 1.767 1.7 2.65 2.45.867.734 1.583 1.234 2.15 1.534.083.033.183.083.3.133.133.05.267.067.417.067.283 0 .5-.1.683-.284l1.267-1.25c.416-.416.816-.733 1.2-.933a2.22 2.22 0 0 1 1.183-.35c.317 0 .65.067 1.017.217.366.15.75.366 1.166.65l5.517 3.916c.433.3.733.65.917 1.067.166.417.266.833.266 1.3Z" stroke="#DC143C" stroke-width="1.5" stroke-miterlimit="10"/><path d="M37.333 10.667h-8m8 0v8-8Z" stroke="#DC143C" stroke-width="1.5" stroke-linecap="round" stroke-linejoin="round"/></svg>