<svg width="48" height="48" fill="none" xmlns="http://www.w3.org/2000/svg"><path d="M34 24c5.523 0 10-4.477 10-10S39.523 4 34 4 24 8.477 24 14c0 1.6.376 3.112 1.043 4.453.178.356.237.763.134 1.148l-.595 2.226a1.3 1.3 0 0 0 1.591 1.591l2.226-.595a1.634 1.634 0 0 1 1.149.134A9.96 9.96 0 0 0 34 24Z" stroke="#DC143C" stroke-width="1.5"/><path d="m29.29 33.087.91-.959-2.175-2.066-.911.96 2.175 2.065Zm3.907-1.362 3.822 2.199 1.496-2.6-3.82-2.2-1.498 2.6Zm4.559 6.759-2.841 2.991 2.175 2.066 2.841-2.991-2.175-2.066Zm-4.55 3.95c-2.87.283-10.36.041-18.488-8.517l-2.175 2.066c8.859 9.327 17.31 9.796 20.957 9.436l-.295-2.986Zm-18.488-8.517c-7.752-8.161-9.052-15.046-9.214-18.066l-2.996.161c.199 3.699 1.769 11.269 10.035 19.971l2.175-2.066Zm2.751-13.274.574-.604-2.175-2.066-.574.604 2.175 2.066Zm1.024-8.123-2.522-3.567-2.45 1.732 2.523 3.567 2.45-1.732ZM7.435 8.184 4.296 11.49l2.175 2.066 3.14-3.305-2.176-2.066Zm8.947 11.426a76.446 76.446 0 0 0-1.09-1.03l-.004.003-.005.006-.013.014a2.113 2.113 0 0 0-.233.309 3.186 3.186 0 0 0-.315.649c-.195.549-.302 1.276-.168 2.184.26 1.784 1.43 4.184 4.485 7.4l2.175-2.066c-2.855-3.006-3.559-4.858-3.692-5.769-.065-.44 0-.67.027-.744.014-.04.024-.052.014-.037a.526.526 0 0 1-.028.04l-.028.032a1.18 1.18 0 0 1-.017.02l-.01.01-.006.006-.002.003c-.002.002-.003.003-1.09-1.03Zm2.657 9.535c3.045 3.206 5.346 4.467 7.1 4.752.901.146 1.63.03 2.182-.188.27-.107.483-.232.644-.345a2.494 2.494 0 0 0 .271-.223l.029-.029a.738.738 0 0 0 .018-.019c.002 0 .003-.002.003-.003.002-.001.003-.003-1.085-1.036-1.087-1.033-1.086-1.034-1.084-1.035l.002-.003.006-.006a.482.482 0 0 0 .01-.01l.02-.02a.893.893 0 0 1 .074-.063c.019-.014.017-.009-.008.001-.04.015-.22.08-.6.018-.805-.131-2.543-.842-5.407-3.857l-2.175 2.066ZM15.97 8.953c-2.027-2.867-6.083-3.35-8.536-.769L9.61 10.25c1.045-1.1 2.886-1.014 3.91.435l2.45-1.732ZM5.504 15.852c-.043-.8.305-1.599.967-2.297L4.296 11.49c-1.072 1.129-1.886 2.696-1.788 4.523l2.996-.16Zm29.41 25.623c-.557.588-1.141.902-1.709.958l.295 2.986c1.494-.148 2.703-.944 3.59-1.878l-2.175-2.066Zm-16.87-21.436c1.935-2.037 2.072-5.225.45-7.519l-2.45 1.732c.845 1.194.716 2.783-.175 3.721l2.175 2.066ZM37.02 33.924c1.641.945 1.962 3.27.737 4.56l2.175 2.066c2.61-2.748 1.85-7.346-1.416-9.226l-1.496 2.6Zm-6.82-1.796c.77-.811 1.972-.994 2.997-.403l1.497-2.6c-2.197-1.265-4.922-.902-6.67.937l2.176 2.066Z" fill="#DC143C"/></svg>