<svg width="48" height="48" fill="none" xmlns="http://www.w3.org/2000/svg"><path d="M32 8c1.86 0 2.79 0 3.553.204a6 6 0 0 1 4.243 4.243C40 13.21 40 14.14 40 16v18.4c0 3.36 0 5.04-.654 6.324a6 6 0 0 1-2.622 2.622C35.44 44 33.76 44 30.4 44H17.6c-3.36 0-5.04 0-6.324-.654a6 6 0 0 1-2.622-2.622C8 39.44 8 37.76 8 34.4V16c0-1.86 0-2.79.204-3.553a6 6 0 0 1 4.243-4.243C13.21 8 14.14 8 16 8m2 20h12M19.2 12h9.6c1.12 0 1.68 0 2.108-.218a2 2 0 0 0 .874-.874C32 10.48 32 9.92 32 8.8V7.2c0-1.12 0-1.68-.218-2.108a2 2 0 0 0-.874-.874C30.48 4 29.92 4 28.8 4h-9.6c-1.12 0-1.68 0-2.108.218a2 2 0 0 0-.874.874C16 5.52 16 6.08 16 7.2v1.6c0 1.12 0 1.68.218 2.108a2 2 0 0 0 .874.874C17.52 12 18.08 12 19.2 12Z" stroke="#DC143C" stroke-width="2" stroke-linecap="round" stroke-linejoin="round"/></svg>