<svg width="48" height="48" fill="none" xmlns="http://www.w3.org/2000/svg"><path d="M34.02 25.46a2.14 2.14 0 1 0 0-4.28 2.14 2.14 0 0 0 0 4.28Z" stroke="#DC143C" stroke-width="1.5" stroke-linecap="round" stroke-linejoin="round"/><path d="M40 12v3.58c-.5-.06-1.08-.1-1.7-.1h-8.56c-4.28 0-5.7 1.42-5.7 5.7V31.4H12c-6.4 0-8-1.6-8-8V12c0-6.4 1.6-8 8-8h20c6.4 0 8 1.6 8 8ZM18 31.4V40M4 23.8h20M11.9 40H24" stroke="#DC143C" stroke-width="1.5" stroke-linecap="round" stroke-linejoin="round"/><path d="M34.02 25.46a2.14 2.14 0 1 0 0-4.28 2.14 2.14 0 0 0 0 4.28Z" stroke="#DC143C" stroke-width="1.5" stroke-miterlimit="10" stroke-linecap="round" stroke-linejoin="round"/><path d="M40 15.58c-.5-.06-1.08-.1-1.7-.1h-8.56c-4.28 0-5.7 1.42-5.7 5.7V38.3c0 4.28 1.42 5.7 5.7 5.7h8.56c4.28 0 5.7-1.42 5.7-5.7V21.18c0-3.66-1.04-5.22-4-5.6Zm-5.98 5.6c1.18 0 2.14.96 2.14 2.14 0 1.18-.96 2.14-2.14 2.14-1.18 0-2.14-.96-2.14-2.14 0-1.18.96-2.14 2.14-2.14Zm0 17.12c-2.36 0-4.28-1.92-4.28-4.28a4.284 4.284 0 0 1 4.28-4.28c1.08 0 2.06.4 2.8 1.04.9.8 1.48 1.96 1.48 3.24 0 2.36-1.92 4.28-4.28 4.28Z" stroke="#DC143C" stroke-width="1.5" stroke-miterlimit="10" stroke-linecap="round" stroke-linejoin="round"/><path d="M38.3 34.02c0 2.36-1.92 4.28-4.28 4.28-2.36 0-4.28-1.92-4.28-4.28a4.284 4.284 0 0 1 4.28-4.28c1.08 0 2.06.4 2.8 1.04.9.8 1.48 1.96 1.48 3.24Zm-4.28-8.56a2.14 2.14 0 1 0 0-4.28 2.14 2.14 0 0 0 0 4.28Z" stroke="#DC143C" stroke-width="1.5" stroke-miterlimit="10" stroke-linecap="round" stroke-linejoin="round"/></svg>