<svg width="24" height="24" fill="none" xmlns="http://www.w3.org/2000/svg"><path d="M18.75 7.5h-1.5V6A2.998 2.998 0 0 0 12 4.019a2.998 2.998 0 0 0-5.23 1.646A2.998 2.998 0 0 0 2.25 8.25V12a9.75 9.75 0 1 0 19.5 0v-1.5a3.003 3.003 0 0 0-3-3Zm-4.5-3a1.502 1.502 0 0 1 1.5 1.5v1.5h-3V6a1.502 1.502 0 0 1 1.5-1.5Zm-6 1.5a1.5 1.5 0 0 1 3 0v3.75a1.5 1.5 0 1 1-3 0V6Zm-4.5 2.25a1.5 1.5 0 0 1 3 0v1.5a1.5 1.5 0 0 1-3 0v-1.5Zm8.25 12a8.26 8.26 0 0 1-8.243-7.898 2.995 2.995 0 0 0 3.743-.62 2.993 2.993 0 0 0 4.18.313c.27.447.65.816 1.105 1.072A4.491 4.491 0 0 0 11.25 16.5a.75.75 0 1 0 1.5 0 3.003 3.003 0 0 1 3-3 .75.75 0 1 0 0-1.5h-1.5a1.502 1.502 0 0 1-1.5-1.5V9h6a1.502 1.502 0 0 1 1.5 1.5V12A8.26 8.26 0 0 1 12 20.25Z" fill="#DC143C"/></svg>