<svg width="48" height="48" fill="none" xmlns="http://www.w3.org/2000/svg"><path d="m36.94 33.66.78 6.32c.2 1.66-1.58 2.82-3 1.96l-8.38-4.98c-.92 0-1.82-.06-2.7-.18 1.48-1.74 2.36-3.94 2.36-6.32 0-5.68-4.92-10.28-11-10.28-2.32 0-4.46.66-6.24 1.82-.06-.5-.08-1-.08-1.52C8.68 11.38 16.58 4 26.34 4S44 11.38 44 20.48c0 5.4-2.78 10.18-7.06 13.18Z" stroke="#DC143C" stroke-width="1.5" stroke-linecap="round" stroke-linejoin="round"/><path d="M26 30.46c0 2.38-.88 4.58-2.36 6.32-1.98 2.4-5.12 3.94-8.64 3.94l-5.22 3.1c-.88.54-2-.2-1.88-1.22l.5-3.94C5.72 36.8 4 33.82 4 30.46c0-3.52 1.88-6.62 4.76-8.46 1.78-1.16 3.92-1.82 6.24-1.82 6.08 0 11 4.6 11 10.28Z" stroke="#DC143C" stroke-width="1.5" stroke-linecap="round" stroke-linejoin="round"/></svg>