<svg width="48" height="48" fill="none" xmlns="http://www.w3.org/2000/svg"><path d="M35.96 21.58v8c0 .52-.02 1.02-.08 1.5-.46 5.4-3.64 8.08-9.5 8.08h-.8c-.5 0-.98.24-1.28.64L21.9 43c-1.06 1.42-2.78 1.42-3.84 0l-2.4-3.2c-.26-.34-.84-.64-1.28-.64h-.8C7.2 39.16 4 37.58 4 29.58v-8c0-5.86 2.7-9.04 8.08-9.5.48-.06.98-.08 1.5-.08h12.8c6.38 0 9.58 3.2 9.58 9.58Z" stroke="#DC143C" stroke-width="1.5" stroke-miterlimit="10" stroke-linecap="round" stroke-linejoin="round"/><path d="M43.96 13.58v8c0 5.88-2.7 9.04-8.08 9.5.06-.48.08-.98.08-1.5v-8c0-6.38-3.2-9.58-9.58-9.58h-12.8c-.52 0-1.02.02-1.5.08C12.54 6.7 15.72 4 21.58 4h12.8c6.38 0 9.58 3.2 9.58 9.58Z" stroke="#DC143C" stroke-width="1.5" stroke-miterlimit="10" stroke-linecap="round" stroke-linejoin="round"/><path d="M26.991 26.5h.018m-7.018 0h.018m-7.018 0h.018" stroke="#DC143C" stroke-width="2" stroke-linecap="round" stroke-linejoin="round"/></svg>