<svg width="48" height="48" fill="none" xmlns="http://www.w3.org/2000/svg"><path d="M44 14.86v12c0 3-1 5.5-2.76 7.26C39.5 35.86 37 36.86 34 36.86v4.26c0 1.6-1.78 2.56-3.1 1.68L22 36.86h-4.24c.16-.6.24-1.22.24-1.86 0-2.04-.78-3.92-2.06-5.34A7.888 7.888 0 0 0 10 27c-2.24 0-4.28.92-5.74 2.42-.18-.8-.26-1.66-.26-2.56v-12c0-6 4-10 10-10h20c6 0 10 4 10 10Z" stroke="#DC143C" stroke-width="1.5" stroke-miterlimit="10" stroke-linecap="round" stroke-linejoin="round"/><path d="M18 35c0 1.5-.42 2.92-1.16 4.12-.42.72-.96 1.36-1.58 1.88A7.81 7.81 0 0 1 10 43a7.94 7.94 0 0 1-6.84-3.88A7.842 7.842 0 0 1 2 35c0-2.52 1.16-4.78 3-6.24A8.005 8.005 0 0 1 10 27c4.42 0 8 3.58 8 8Z" stroke="#DC143C" stroke-width="1.5" stroke-miterlimit="10" stroke-linecap="round" stroke-linejoin="round"/><path d="m6.88 35 1.98 1.98 4.26-3.94" stroke="#DC143C" stroke-width="1.5" stroke-linecap="round" stroke-linejoin="round"/><path d="M17 21h14" stroke="#DC143C" stroke-width="1.5" stroke-miterlimit="10" stroke-linecap="round" stroke-linejoin="round"/></svg>