<svg width="48" height="48" fill="none" xmlns="http://www.w3.org/2000/svg"><path d="M34 44H14C8 44 4 41 4 34V24c0-7 4-10 10-10h20c6 0 10 3 10 10v10c0 7-4 10-10 10ZM12 9h24M18 4h12" stroke="#DC143C" stroke-width="1.5" stroke-miterlimit="10" stroke-linecap="round" stroke-linejoin="round"/><g opacity=".4" stroke="#DC143C" stroke-width="1.5" stroke-linecap="round" stroke-linejoin="round"><path d="M17.78 38.22a2.74 2.74 0 1 0-.001-5.48 2.74 2.74 0 0 0 0 5.48Z"/><path d="M30.56 33.66v-10.7c0-2.28-1.42-2.6-2.88-2.2l-5.48 1.5c-1 .28-1.68 1.06-1.68 2.2v11.02"/><path d="M27.818 36.4a2.74 2.74 0 1 0 0-5.48 2.74 2.74 0 0 0 0 5.48Zm-7.298-8.74 10.04-2.74"/></g></svg>