<svg width="20" height="19" fill="none" xmlns="http://www.w3.org/2000/svg"><path d="M18.57 9.74a3.05 3.05 0 0 1-.917-4.017c.471-.82.226-1.63-.16-2.115-.387-.485-1.123-.904-2.027-.627a3.051 3.051 0 0 1-3.712-1.788C11.406.313 10.62 0 10 0c-.62 0-1.406.313-1.754 1.193a3.051 3.051 0 0 1-3.712 1.788c-.904-.277-1.64.142-2.026.627-.387.485-.632 1.295-.16 2.115A3.05 3.05 0 0 1 1.43 9.74c-.78.535-.91 1.37-.773 1.975.138.605.619 1.302 1.554 1.444a3.051 3.051 0 0 1 2.569 3.222c-.069.943.503 1.567 1.062 1.836.559.269 1.403.328 2.098-.314a3.026 3.026 0 0 1 2.06-.8c.741 0 1.482.266 2.06.8.695.642 1.54.583 2.098.314.559-.27 1.13-.893 1.062-1.836a3.051 3.051 0 0 1 2.57-3.222c.934-.142 1.415-.84 1.553-1.444.138-.604.007-1.44-.773-1.975ZM10 15.746a6.177 6.177 0 0 1-6.17-6.17A6.177 6.177 0 0 1 10 3.408a6.177 6.177 0 0 1 6.17 6.17 6.177 6.177 0 0 1-6.17 6.17Z" fill="#DC143C"/></svg>