<svg width="48" height="48" fill="none" xmlns="http://www.w3.org/2000/svg"><path d="M10.94 18a7 7 0 1 0 0-14 7 7 0 0 0 0 14Zm23 12h6c2.2 0 4 1.8 4 4v6c0 2.2-1.8 4-4 4h-6c-2.2 0-4-1.8-4-4v-6c0-2.2 1.8-4 4-4Z" stroke="#DC143C" stroke-width="1.5"/><path d="M24 10h5.36c3.7 0 5.42 4.58 2.64 7.02L16.02 31c-2.78 2.42-1.06 7 2.62 7H24" stroke="#DC143C" stroke-width="1.5" stroke-linecap="round" stroke-linejoin="round"/><path d="M10.972 11h.024m25.976 26h.023" stroke="#DC143C" stroke-width="2" stroke-linecap="round" stroke-linejoin="round"/></svg>