<svg width="48" height="48" viewBox="0 0 48 48" fill="none" xmlns="http://www.w3.org/2000/svg">
<path d="M33.9199 12.3401C37.9199 15.1201 40.6799 19.5401 41.2399 24.6401" stroke="#DC143C" stroke-width="1.5" stroke-linecap="round" stroke-linejoin="round"/>
<path d="M6.98047 24.7399C7.50047 19.6599 10.2205 15.2399 14.1805 12.4399" stroke="#DC143C" stroke-width="1.5" stroke-linecap="round" stroke-linejoin="round"/>
<path d="M16.3799 41.8799C18.6999 43.0599 21.3399 43.7199 24.1199 43.7199C26.7999 43.7199 29.3199 43.1199 31.5799 42.0199" stroke="#DC143C" stroke-width="1.5" stroke-linecap="round" stroke-linejoin="round"/>
<path d="M24.1196 15.4C27.1903 15.4 29.6796 12.9107 29.6796 9.84003C29.6796 6.76933 27.1903 4.28003 24.1196 4.28003C21.0489 4.28003 18.5596 6.76933 18.5596 9.84003C18.5596 12.9107 21.0489 15.4 24.1196 15.4Z" stroke="#DC143C" stroke-width="1.5" stroke-linecap="round" stroke-linejoin="round"/>
<path d="M9.65961 39.84C12.7303 39.84 15.2196 37.3507 15.2196 34.28C15.2196 31.2093 12.7303 28.72 9.65961 28.72C6.58891 28.72 4.09961 31.2093 4.09961 34.28C4.09961 37.3507 6.58891 39.84 9.65961 39.84Z" stroke="#DC143C" stroke-width="1.5" stroke-linecap="round" stroke-linejoin="round"/>
<path d="M38.3403 39.84C41.411 39.84 43.9003 37.3507 43.9003 34.28C43.9003 31.2093 41.411 28.72 38.3403 28.72C35.2696 28.72 32.7803 31.2093 32.7803 34.28C32.7803 37.3507 35.2696 39.84 38.3403 39.84Z" stroke="#DC143C" stroke-width="1.5" stroke-linecap="round" stroke-linejoin="round"/>
</svg>
