<svg width="24" height="24" fill="none" xmlns="http://www.w3.org/2000/svg"><path clip-rule="evenodd" d="m4 4 7.631-1.43a2 2 0 0 1 .738 0L20 4v7.903a11 11 0 0 1-5.17 9.328l-2.3 1.438a1 1 0 0 1-1.06 0l-2.3-1.438A11 11 0 0 1 4 11.903V4Z" stroke="#DC143C"/><path fill-rule="evenodd" clip-rule="evenodd" d="M11.175 14.75a.946.946 0 0 1-.671-.287l-1.917-1.917a.926.926 0 0 1 0-1.342c.384-.383 1.007-.383 1.342 0l1.246 1.246 3.162-3.162a.926.926 0 0 1 1.342 0 .926.926 0 0 1 0 1.341l-3.833 3.834a.946.946 0 0 1-.671.287Z" fill="#DC143C"/></svg>