<svg width="48" height="48" fill="none" xmlns="http://www.w3.org/2000/svg"><path d="M39.037 10.275a3.337 3.337 0 1 0 0-6.675 3.337 3.337 0 0 0 0 6.675Zm4.086 6.45c0-2.812-2.062-5.1-4.687-5.55 0 0-.338-.037-.413-.037-1.05 0-1.875.825-1.875 1.875v12.525A1.49 1.49 0 0 0 37.611 27a1.49 1.49 0 0 0 1.462-1.462v-9.375c0-.263.15-.413.413-.413.262 0 .412.15.412.413v9.412c0 .525-.225 1.05-.487 1.463a2.345 2.345 0 0 1-1.8.825c-.225 0-.413-.038-.638-.075v13.875c0 1.162.938 2.1 2.1 2.1 1.163 0 2.1-.938 2.1-2.1V26.25c.525-.412.975-1.05 1.125-1.725.525-2.287.825-4.725.825-7.2.038-.112 0-.562 0-.6Zm-20.098-6.45a3.337 3.337 0 1 0 0-6.675 3.337 3.337 0 0 0 0 6.675Zm4.052 6.45c0-2.812-2.063-5.1-4.688-5.55 0 0-.337-.037-.412-.037-1.05 0-1.875.825-1.875 1.875v12.525A1.49 1.49 0 0 0 21.564 27a1.49 1.49 0 0 0 1.463-1.462v-9.375c0-.263.15-.413.412-.413.263 0 .413.15.413.413v9.412c0 .525-.225 1.05-.488 1.463a2.345 2.345 0 0 1-1.8.825c-.225 0-.412-.038-.637-.075v13.875c0 1.162.937 2.1 2.1 2.1 1.162 0 2.1-.938 2.1-2.1V26.25c.525-.412.975-1.05 1.125-1.725.525-2.287.825-4.725.825-7.2.037-.112 0-.562 0-.6Zm-20.103-6.45a3.337 3.337 0 1 0 0-6.675 3.337 3.337 0 0 0 0 6.675Zm4.052 6.45c0-2.812-2.063-5.1-4.688-5.55 0 0-.337-.037-.412-.037-1.05 0-1.875.825-1.875 1.875v12.525A1.49 1.49 0 0 0 5.513 27a1.49 1.49 0 0 0 1.463-1.462v-9.375c0-.263.15-.413.412-.413.263 0 .413.15.413.413v9.412c0 .525-.225 1.05-.488 1.463a2.345 2.345 0 0 1-1.8.825c-.225 0-.412-.038-.637-.075v13.875c0 1.162.937 2.1 2.1 2.1 1.162 0 2.1-.938 2.1-2.1V26.25c.525-.412.975-1.05 1.125-1.725.525-2.287.825-4.725.825-7.2.037-.112 0-.562 0-.6Z" fill="#DC143C"/></svg>