<svg width="20" height="20" viewBox="0 0 20 20" fill="none" xmlns="http://www.w3.org/2000/svg">
<path d="M10.3096 1.7917L17.8096 4.79168C18.1013 4.90835 18.3346 5.25834 18.3346 5.56667V8.33335C18.3346 8.79168 17.9596 9.16668 17.5013 9.16668H2.5013C2.04297 9.16668 1.66797 8.79168 1.66797 8.33335V5.56667C1.66797 5.25834 1.90131 4.90835 2.19297 4.79168L9.69297 1.7917C9.85964 1.72503 10.143 1.72503 10.3096 1.7917Z" stroke="#292D32" stroke-width="1.5" stroke-miterlimit="10" stroke-linecap="round" stroke-linejoin="round"/>
<path d="M18.3346 18.3333H1.66797V15.8333C1.66797 15.375 2.04297 15 2.5013 15H17.5013C17.9596 15 18.3346 15.375 18.3346 15.8333V18.3333Z" stroke="#292D32" stroke-width="1.5" stroke-miterlimit="10" stroke-linecap="round" stroke-linejoin="round"/>
<path d="M3.33203 15.0001V9.16675" stroke="#292D32" stroke-width="1.5" stroke-miterlimit="10" stroke-linecap="round" stroke-linejoin="round"/>
<path d="M6.66797 15.0001V9.16675" stroke="#292D32" stroke-width="1.5" stroke-miterlimit="10" stroke-linecap="round" stroke-linejoin="round"/>
<path d="M10 15V9.16663" stroke="#292D32" stroke-width="1.5" stroke-miterlimit="10" stroke-linecap="round" stroke-linejoin="round"/>
<path d="M13.332 15.0001V9.16675" stroke="#292D32" stroke-width="1.5" stroke-miterlimit="10" stroke-linecap="round" stroke-linejoin="round"/>
<path d="M16.668 15.0001V9.16675" stroke="#292D32" stroke-width="1.5" stroke-miterlimit="10" stroke-linecap="round" stroke-linejoin="round"/>
<path d="M0.832031 18.3333H19.1654" stroke="#292D32" stroke-width="1.5" stroke-miterlimit="10" stroke-linecap="round" stroke-linejoin="round"/>
<path d="M10 7.08337C10.6904 7.08337 11.25 6.52373 11.25 5.83337C11.25 5.14302 10.6904 4.58337 10 4.58337C9.30964 4.58337 8.75 5.14302 8.75 5.83337C8.75 6.52373 9.30964 7.08337 10 7.08337Z" stroke="#292D32" stroke-width="1.5" stroke-miterlimit="10" stroke-linecap="round" stroke-linejoin="round"/>
</svg>
