<svg width="48" height="48" viewBox="0 0 48 48" fill="none" xmlns="http://www.w3.org/2000/svg">
<path d="M35.96 21.58V29.58C35.96 30.1 35.94 30.6 35.88 31.08C35.42 36.48 32.24 39.16 26.38 39.16H25.58C25.08 39.16 24.6 39.4 24.3 39.8L21.9 43C20.84 44.42 19.12 44.42 18.06 43L15.66 39.8C15.4 39.46 14.82 39.16 14.38 39.16H13.58C7.20002 39.16 4 37.58 4 29.58V21.58C4 15.72 6.70002 12.54 12.08 12.08C12.56 12.02 13.06 12 13.58 12H26.38C32.76 12 35.96 15.2 35.96 21.58Z" stroke="#DC143C" stroke-width="1.5" stroke-miterlimit="10" stroke-linecap="round" stroke-linejoin="round"/>
<path d="M43.9601 13.58V21.58C43.9601 27.46 41.2601 30.62 35.8801 31.08C35.9401 30.6 35.9601 30.1 35.9601 29.58V21.58C35.9601 15.2 32.7601 12 26.3801 12H13.5801C13.0601 12 12.5601 12.02 12.0801 12.08C12.5401 6.70002 15.7201 4 21.5801 4H34.3801C40.7601 4 43.9601 7.20002 43.9601 13.58Z" stroke="#DC143C" stroke-width="1.5" stroke-miterlimit="10" stroke-linecap="round" stroke-linejoin="round"/>
<path d="M26.991 26.5H27.009" stroke="#DC143C" stroke-width="2" stroke-linecap="round" stroke-linejoin="round"/>
<path d="M19.991 26.5H20.009" stroke="#DC143C" stroke-width="2" stroke-linecap="round" stroke-linejoin="round"/>
<path d="M12.991 26.5H13.009" stroke="#DC143C" stroke-width="2" stroke-linecap="round" stroke-linejoin="round"/>
</svg>
