<svg width="48" height="48" viewBox="0 0 48 48" fill="none" xmlns="http://www.w3.org/2000/svg">
<path d="M24 31C28.42 31 32 27.42 32 23V12C32 7.58 28.42 4 24 4C19.58 4 16 7.58 16 12V23C16 27.42 19.58 31 24 31Z" stroke="#DC143C" stroke-width="1.5" stroke-linecap="round" stroke-linejoin="round"/>
<path d="M8.7002 19.3V22.7001C8.7002 31.14 15.5602 38 24.0002 38C32.4402 38 39.3002 31.14 39.3002 22.7001V19.3" stroke="#DC143C" stroke-width="1.5" stroke-linecap="round" stroke-linejoin="round"/>
<path d="M21.2197 12.86C23.0197 12.2 24.9797 12.2 26.7797 12.86" stroke="#DC143C" stroke-width="1.5" stroke-linecap="round" stroke-linejoin="round"/>
<path d="M22.4004 17.0999C23.4604 16.8199 24.5604 16.8199 25.6204 17.0999" stroke="#DC143C" stroke-width="1.5" stroke-linecap="round" stroke-linejoin="round"/>
<path d="M24 38V44" stroke="#DC143C" stroke-width="1.5" stroke-linecap="round" stroke-linejoin="round"/>
</svg>
