<svg width="48" height="48" viewBox="0 0 48 48" fill="none" xmlns="http://www.w3.org/2000/svg">
<path d="M10.9404 18C14.8064 18 17.9404 14.866 17.9404 11C17.9404 7.13401 14.8064 4 10.9404 4C7.07444 4 3.94043 7.13401 3.94043 11C3.94043 14.866 7.07444 18 10.9404 18Z" stroke="#DC143C" stroke-width="1.5"/>
<path d="M33.9404 30H39.9404C42.1404 30 43.9404 31.8 43.9404 34V40C43.9404 42.2 42.1404 44 39.9404 44H33.9404C31.7404 44 29.9404 42.2 29.9404 40V34C29.9404 31.8 31.7404 30 33.9404 30Z" stroke="#DC143C" stroke-width="1.5"/>
<path d="M24.0004 10H29.3604C33.0604 10 34.7804 14.58 32.0004 17.02L16.0204 31C13.2404 33.42 14.9604 38 18.6404 38H24.0004" stroke="#DC143C" stroke-width="1.5" stroke-linecap="round" stroke-linejoin="round"/>
<path d="M10.9724 11H10.9955" stroke="#DC143C" stroke-width="2" stroke-linecap="round" stroke-linejoin="round"/>
<path d="M36.9724 37H36.9955" stroke="#DC143C" stroke-width="2" stroke-linecap="round" stroke-linejoin="round"/>
</svg>
